<svg viewBox="0 0 31 30" fill="none" xmlns="http://www.w3.org/2000/svg">
  <g clip-path="url(#clip0_9_3)">
    <mask
      id="mask0_9_3"
      style="mask-type:luminance"
      maskUnits="userSpaceOnUse"
      x="0"
      y="0"
      width="31"
      height="30"
    >
      <path
        d="M21.6892 29.8352C21.927 29.9287 22.1812 29.9718 22.4362 29.962C22.6912 29.9521 22.9414 29.8894 23.1713 29.7778L29.3222 26.7941C29.639 26.6404 29.9063 26.3996 30.0934 26.0995C30.2804 25.7993 30.3796 25.4521 30.3796 25.0976V4.8658C30.3796 4.51136 30.2804 4.16412 30.0933 3.86401C29.9063 3.56391 29.639 3.32313 29.3222 3.16938L23.1714 0.185564C22.8239 0.0169617 22.4329 -0.0385518 22.0527 0.0267072C21.6724 0.0919661 21.3217 0.27477 21.0491 0.549815L9.27386 11.3799L4.14467 7.45489C3.9133 7.27784 3.62775 7.18803 3.33757 7.20103C3.04738 7.21404 2.77087 7.32906 2.556 7.52611L0.910982 9.03474C0.368539 9.5321 0.367953 10.3924 0.909576 10.8906L5.35773 14.9817L0.909576 19.0727C0.367953 19.571 0.368539 20.4312 0.910982 20.9287L2.556 22.4372C2.77085 22.6343 3.04736 22.7493 3.33755 22.7623C3.62773 22.7753 3.91329 22.6856 4.14467 22.5085L9.27386 18.5834L21.0491 29.4135C21.2311 29.5973 21.4492 29.7409 21.6892 29.8352ZM22.9152 8.14442L13.9805 14.9817L22.9152 21.8189V8.14442Z"
        fill="white"></path>
    </mask>
    <g mask="url(#mask0_9_3)">
      <path
        d="M29.3405 3.17437L23.1848 0.186422C22.8371 0.0176838 22.4461 -0.0379479 22.0657 0.0272252C21.6853 0.0923983 21.3344 0.275154 21.0615 0.550201L0.909826 19.0731C0.367852 19.5714 0.368555 20.4316 0.911232 20.9291L2.55731 22.4376C2.77235 22.6347 3.04903 22.7497 3.33938 22.7628C3.62974 22.7758 3.91547 22.686 4.14703 22.5089L28.4143 3.94953C29.2284 3.32697 30.3978 3.91233 30.3978 4.94248V4.87044C30.3978 4.51607 30.2985 4.16891 30.1115 3.86887C29.9245 3.56883 29.6572 3.3281 29.3405 3.17437Z"
        fill="#0065A9"></path>
    </g>
    <mask
      id="mask1_9_3"
      style="mask-type:luminance"
      maskUnits="userSpaceOnUse"
      x="0"
      y="0"
      width="31"
      height="30"
    >
      <path
        d="M21.6892 29.8352C21.927 29.9287 22.1812 29.9718 22.4362 29.962C22.6912 29.9521 22.9414 29.8894 23.1713 29.7778L29.3222 26.7941C29.639 26.6404 29.9063 26.3996 30.0934 26.0995C30.2804 25.7993 30.3796 25.4521 30.3796 25.0976V4.8658C30.3796 4.51136 30.2804 4.16412 30.0933 3.86401C29.9063 3.56391 29.639 3.32313 29.3222 3.16938L23.1714 0.185564C22.8239 0.0169617 22.4329 -0.0385518 22.0527 0.0267072C21.6724 0.0919661 21.3217 0.27477 21.0491 0.549815L9.27386 11.3799L4.14467 7.45489C3.9133 7.27784 3.62775 7.18803 3.33757 7.20103C3.04738 7.21404 2.77087 7.32906 2.556 7.52611L0.910982 9.03474C0.368539 9.5321 0.367953 10.3924 0.909576 10.8906L5.35773 14.9817L0.909576 19.0727C0.367953 19.571 0.368539 20.4312 0.910982 20.9287L2.556 22.4372C2.77085 22.6343 3.04736 22.7493 3.33755 22.7623C3.62773 22.7753 3.91329 22.6856 4.14467 22.5085L9.27386 18.5834L21.0491 29.4135C21.2311 29.5973 21.4492 29.7409 21.6892 29.8352ZM22.9152 8.14442L13.9805 14.9817L22.9152 21.8189V8.14442Z"
        fill="white"></path>
    </mask>
    <g mask="url(#mask1_9_3)">
      <path
        d="M29.3405 26.7893L23.1848 29.7773C22.8371 29.946 22.446 30.0016 22.0656 29.9364C21.6853 29.8712 21.3344 29.6885 21.0615 29.4135L0.909796 10.8906C0.367821 10.3924 0.368524 9.53209 0.911201 9.03473L2.55728 7.52611C2.77233 7.32901 3.04902 7.21398 3.33937 7.20098C3.62973 7.18797 3.91545 7.27779 4.147 7.45489L28.4142 26.0141C29.2284 26.6367 30.3977 26.0513 30.3977 25.0211V25.0932C30.3977 25.4476 30.2985 25.7948 30.1115 26.0948C29.9244 26.3948 29.6572 26.6356 29.3405 26.7893Z"
        fill="#007ACC"></path>
    </g>
    <mask
      id="mask2_9_3"
      style="mask-type:luminance"
      maskUnits="userSpaceOnUse"
      x="0"
      y="0"
      width="31"
      height="30"
    >
      <path
        d="M21.6892 29.8352C21.927 29.9287 22.1812 29.9718 22.4362 29.962C22.6912 29.9521 22.9414 29.8894 23.1713 29.7778L29.3222 26.7941C29.639 26.6404 29.9063 26.3996 30.0934 26.0995C30.2804 25.7993 30.3796 25.4521 30.3796 25.0976V4.8658C30.3796 4.51136 30.2804 4.16412 30.0933 3.86401C29.9063 3.56391 29.639 3.32313 29.3222 3.16938L23.1714 0.185564C22.8239 0.0169617 22.4329 -0.0385518 22.0527 0.0267072C21.6724 0.0919661 21.3217 0.27477 21.0491 0.549815L9.27386 11.3799L4.14467 7.45489C3.9133 7.27784 3.62775 7.18803 3.33757 7.20103C3.04738 7.21404 2.77087 7.32906 2.556 7.52611L0.910982 9.03474C0.368539 9.5321 0.367953 10.3924 0.909576 10.8906L5.35773 14.9817L0.909576 19.0727C0.367953 19.571 0.368539 20.4312 0.910982 20.9287L2.556 22.4372C2.77085 22.6343 3.04736 22.7493 3.33755 22.7623C3.62773 22.7753 3.91329 22.6856 4.14467 22.5085L9.27386 18.5834L21.0491 29.4135C21.2311 29.5973 21.4492 29.7409 21.6892 29.8352ZM22.9152 8.14442L13.9805 14.9817L22.9152 21.8189V8.14442Z"
        fill="white"></path>
    </mask>
    <g mask="url(#mask2_9_3)">
      <path
        d="M23.1654 29.7796C22.8177 29.9482 22.4266 30.0038 22.0461 29.9385C21.6657 29.8733 21.3148 29.6905 21.0419 29.4155C21.7309 30.11 22.9092 29.618 22.9092 28.6356V1.33145C22.9092 0.349014 21.7309 -0.142915 21.0419 0.551691C21.3148 0.276621 21.6657 0.0938196 22.0461 0.0285651C22.4265 -0.0366893 22.8177 0.0188278 23.1654 0.187439L29.3201 3.17126C29.637 3.3249 29.9044 3.56563 30.0916 3.86575C30.2788 4.16587 30.3781 4.51317 30.378 4.86768V25.0996C30.378 25.823 29.9668 26.4826 29.3201 26.796L23.1654 29.7796Z"
        fill="#1F9CF0"></path>
    </g>
  </g>
  <defs>
    <clipPath id="clip0_9_3">
      <rect width="30" height="30" fill="white" transform="translate(0.5)"
      ></rect>
    </clipPath>
  </defs>
</svg>